HIERARCHY
ROOT root
{
	OFFSET 0.000000 0.000000 0.000000
	CHANNELS 6 Xposition Yposition Zposition Zrotation Yrotation Xrotation
	JOINT lhip
	{
		OFFSET 0.058581 -0.082280 -0.017664
		CHANNELS 3 Zrotation Yrotation Xrotation
		JOINT lknee
		{
			OFFSET 0.043451 -0.386469 0.008037
			CHANNELS 3 Zrotation Yrotation Xrotation
			JOINT lankle
			{
				OFFSET -0.014790 -0.426874 -0.037428
				CHANNELS 3 Zrotation Yrotation Xrotation
				JOINT ltoe
				{
					OFFSET 0.041054 -0.060286 0.122042
					CHANNELS 3 Zrotation Yrotation Xrotation
					End Site
					{
						OFFSET 0.000000 0.000000 0.000000
					}
				}
			}
		}
	}
	JOINT rhip
	{
		OFFSET -0.060310 -0.090513 -0.013543
		CHANNELS 3 Zrotation Yrotation Xrotation
		JOINT rknee
		{
			OFFSET -0.043257 -0.383688 -0.004843
			CHANNELS 3 Zrotation Yrotation Xrotation
			JOINT rankle
			{
				OFFSET 0.019056 -0.420046 -0.034562
				CHANNELS 3 Zrotation Yrotation Xrotation
				JOINT rtoe
				{
					OFFSET -0.034840 -0.062106 0.130323
					CHANNELS 3 Zrotation Yrotation Xrotation
					End Site
					{
						OFFSET 0.000000 0.000000 0.000000
					}
				}
			}
		}
	}
	JOINT lowerback
	{
		OFFSET 0.004439 0.124404 -0.038385
		CHANNELS 3 Zrotation Yrotation Xrotation
		JOINT upperback
		{
			OFFSET 0.004488 0.137956 0.026820
			CHANNELS 3 Zrotation Yrotation Xrotation
			JOINT chest
			{
				OFFSET -0.002265 0.056032 0.002855
				CHANNELS 3 Zrotation Yrotation Xrotation
				JOINT lowerneck
				{
					OFFSET -0.013390 0.211636 -0.033468
					CHANNELS 3 Zrotation Yrotation Xrotation
					JOINT upperneck
					{
						OFFSET 0.010113 0.088937 0.050410
						CHANNELS 3 Zrotation Yrotation Xrotation
						End Site
						{
							OFFSET 0.000000 0.000000 0.000000
						}
					}
				}
				JOINT lclavicle
				{
					OFFSET 0.071702 0.114000 -0.018898
					CHANNELS 3 Zrotation Yrotation Xrotation
					JOINT lshoulder
					{
						OFFSET 0.122921 0.045205 -0.019046
						CHANNELS 3 Zrotation Yrotation Xrotation
						JOINT lelbow
						{
							OFFSET 0.255332 -0.015649 -0.022946
							CHANNELS 3 Zrotation Yrotation Xrotation
							JOINT lwrist
							{
								OFFSET 0.265709 0.012698 -0.007375
								CHANNELS 3 Zrotation Yrotation Xrotation
								End Site
								{
									OFFSET 0.000000 0.000000 0.000000
								}
							}
						}
					}
				}
				JOINT rclavicle
				{
					OFFSET -0.082954 0.112472 -0.023707
					CHANNELS 3 Zrotation Yrotation Xrotation
					JOINT rshoulder
					{
						OFFSET -0.113228 0.046853 -0.008472
						CHANNELS 3 Zrotation Yrotation Xrotation
						JOINT relbow
						{
							OFFSET -0.260127 -0.014369 -0.031269
							CHANNELS 3 Zrotation Yrotation Xrotation
							JOINT rwrist
							{
								OFFSET -0.269108 0.006794 -0.006027
								CHANNELS 3 Zrotation Yrotation Xrotation
								End Site
								{
									OFFSET 0.000000 0.000000 0.000000
								}
							}
						}
					}
				}
			}
		}
	}
}
MOTION
Frames: 10
Frame Time: 0.033333
0.523789 0.245549 0.991588 90.904208 3.875034 96.135240 7.655710 3.956674 -2.310159 3.657814 -3.969234 -8.383065 -2.200016 9.533127 -2.890572 0.000000 -0.000000 0.000000 -1.147337 -2.418744 -5.433949 -1.016819 3.250949 -0.423946 4.625068 -5.276054 -4.632520 0.000000 -0.000000 0.000000 -0.096878 1.694409 -2.142026 3.911285 -3.840088 3.151269 0.248460 1.302942 -7.652738 0.607390 -6.718650 4.590606 5.841049 -8.119240 -7.375373 -23.052885 2.221202 -4.316851 -61.255502 -3.947522 24.748715 4.802080 -9.319078 11.597784 -8.732509 -7.461249 12.386159 23.645768 3.515072 -1.192407 54.491998 7.126881 18.193761 -2.097160 6.717215 4.870382 5.524904 1.430795 5.382673 
0.523281 0.245477 0.991509 90.761919 3.825274 96.108847 7.606284 3.955725 -2.273571 3.640186 -3.932912 -8.410516 -2.139549 9.609819 -2.855060 0.000000 -0.000000 0.000000 -1.230217 -2.330384 -5.568420 -0.980456 3.109254 -0.286787 4.956168 -5.395684 -4.283509 0.000000 -0.000000 0.000000 -0.126830 1.617680 -1.775165 3.842815 -3.657582 2.624071 0.292038 1.318454 -7.460913 0.638105 -6.701268 4.526755 5.822578 -8.072841 -7.299402 -22.942264 2.230586 -4.343171 -61.348979 -3.899396 24.728349 4.862681 -9.317346 11.706097 -8.736678 -7.526023 12.208889 23.699465 3.561395 -1.179529 54.497285 7.110823 18.181883 -2.129390 6.719888 4.885766 5.522801 1.494912 5.425298 
0.522875 0.245196 0.991206 90.682446 3.724068 96.312420 7.452494 3.898523 -2.556547 3.660663 -3.852484 -8.359928 -2.150709 9.681694 -2.810649 0.000000 -0.000000 0.000000 -1.294850 -2.113448 -5.871899 -1.046113 2.861758 -0.296977 5.524047 -5.649743 -3.852901 0.000000 -0.000000 0.000000 -0.246181 1.423961 -1.768220 3.754754 -3.396924 2.194267 0.355462 1.327469 -7.242756 0.709949 -6.618885 4.457601 5.718620 -8.114099 -7.276123 -22.653083 2.282159 -4.398601 -61.514113 -3.856870 24.805231 4.813017 -9.394954 11.867821 -8.854231 -7.603821 12.014763 23.690729 3.656871 -1.177539 54.487569 7.196452 18.262347 -1.921000 6.459511 5.038930 5.639168 1.592787 5.477174 
0.522526 0.244845 0.990241 90.646311 3.694204 96.582114 7.381549 3.933126 -2.947924 3.665175 -3.948125 -8.333983 -2.315481 9.826983 -2.769853 0.000000 -0.000000 0.000000 -1.147445 -1.703899 -6.149408 -1.313014 2.886428 -0.459223 5.471792 -6.026907 -3.894624 0.000000 -0.000000 0.000000 -0.332696 1.053806 -1.806111 3.629265 -3.053325 1.598894 0.503966 1.475328 -6.793469 0.859017 -6.600454 4.455441 5.656349 -8.153374 -7.408386 -22.188038 2.213880 -4.408629 -61.950624 -4.045713 25.010217 4.952428 -9.779518 12.960294 -9.880263 -6.735190 11.269717 23.508664 3.833176 -1.337437 54.380734 7.614348 18.611947 -1.301719 5.752080 6.246253 7.420212 1.279892 4.535377 
0.522565 0.244810 0.990107 90.638936 3.708311 96.580445 7.391499 3.952345 -2.936823 3.659107 -3.946933 -8.355988 -2.339318 9.817758 -2.748943 0.000000 -0.000000 0.000000 -1.112625 -1.708485 -6.145241 -1.337128 2.887041 -0.477501 5.460724 -6.016742 -3.896827 0.000000 -0.000000 0.000000 -0.339165 1.057062 -1.761387 3.640864 -3.059523 1.531193 0.531796 1.490767 -6.768282 0.838266 -6.640878 4.428536 5.660299 -8.186126 -7.427974 -22.185699 2.159161 -4.394318 -61.980187 -4.055397 25.028959 4.975327 -9.761022 12.970476 -9.837615 -6.728139 11.160865 23.502656 3.876746 -1.320833 54.373632 7.611807 18.604419 -1.312729 5.748997 6.238841 7.430794 1.286230 4.443551 
0.522931 0.244542 0.989916 90.803097 3.703521 96.736042 7.400706 3.873303 -3.127303 3.659804 -3.981260 -8.316689 -2.371748 9.768390 -2.816466 0.000000 -0.000000 0.000000 -1.031868 -1.814173 -6.196560 -1.405647 2.869445 -0.611931 5.394007 -6.049240 -3.902257 0.000000 -0.000000 0.000000 -0.446355 1.007477 -2.029101 3.689488 -3.190846 1.657979 0.574925 1.478240 -6.826621 0.879462 -6.613251 4.490691 5.779467 -8.227216 -7.464054 -22.137695 2.107157 -4.343402 -62.030700 -4.064712 25.032892 5.018533 -9.703256 12.875692 -9.849651 -6.743402 11.165466 23.517653 3.905382 -1.277762 54.368213 7.618744 18.521650 -1.270699 5.725600 6.176279 7.416205 1.330878 4.448617 
0.523083 0.244476 0.989726 90.881714 3.699372 96.803168 7.401521 3.845901 -3.189513 3.656430 -4.034275 -8.335249 -2.359030 9.726024 -2.819770 0.000000 -0.000000 0.000000 -1.002969 -1.862441 -6.214848 -1.430952 2.858400 -0.690390 5.373657 -6.082123 -3.871043 0.000000 -0.000000 0.000000 -0.474677 0.969607 -2.057860 3.688268 -3.230556 1.601996 0.601767 1.455364 -6.820177 0.930025 -6.671583 4.464125 5.783651 -8.207315 -7.392779 -22.139530 2.050433 -4.276204 -62.060048 -4.083330 25.031587 5.073783 -9.649260 12.874295 -9.769020 -6.693349 11.161825 23.456917 3.904690 -1.263675 54.450764 7.649334 18.506840 -1.259448 5.706194 6.135186 7.372199 1.314023 4.367025 
0.523135 0.244483 0.989571 90.889414 3.697724 96.803593 7.396946 3.831227 -3.188421 3.654324 -4.047231 -8.333684 -2.337899 9.709458 -2.862109 0.000000 -0.000000 0.000000 -0.981870 -1.857719 -6.196680 -1.461117 2.881999 -0.743633 5.418267 -6.056278 -3.844251 0.000000 -0.000000 0.000000 -0.477223 0.967883 -2.003134 3.684967 -3.265000 1.538334 0.607229 1.475804 -6.808965 0.922119 -6.760504 4.428431 5.825469 -8.238512 -7.407915 -22.151421 2.001226 -4.265059 -62.063988 -4.111711 25.032996 5.076231 -9.562737 12.877713 -9.739120 -6.690063 11.146638 23.394408 3.951064 -1.249508 54.537755 7.642144 18.508071 -1.294273 5.696844 6.086939 7.316221 1.315558 4.282312 
0.523164 0.244503 0.989446 90.880357 3.704284 96.795627 7.395482 3.816341 -3.174629 3.665649 -4.036222 -8.333507 -2.325265 9.718530 -2.897145 0.000000 -0.000000 0.000000 -0.970103 -1.862696 -6.186520 -1.472918 2.880923 -0.755993 5.449746 -6.061342 -3.832568 0.000000 -0.000000 0.000000 -0.474905 0.950842 -1.920508 3.682136 -3.282825 1.433081 0.622878 1.499631 -6.783117 0.919394 -6.792149 4.429063 5.814713 -8.244821 -7.373409 -22.131857 2.006197 -4.259887 -62.083162 -4.106145 25.029333 5.051708 -9.546279 12.922550 -9.704692 -6.657146 11.065439 23.332928 3.947326 -1.247400 54.586923 7.647319 18.521820 -1.290870 5.706427 6.118159 7.309331 1.289834 4.256963 
0.523208 0.244470 0.989450 90.861209 3.720325 96.783520 7.396613 3.784866 -3.170296 3.697981 -4.001059 -8.297236 -2.316315 9.745770 -2.935633 0.000000 -0.000000 0.000000 -0.946815 -1.863837 -6.171205 -1.486844 2.891547 -0.759391 5.446891 -6.072694 -3.840387 0.000000 -0.000000 0.000000 -0.486354 0.974804 -1.897416 3.694639 -3.278450 1.413022 0.630746 1.490752 -6.768220 0.942725 -6.792793 4.403929 5.814564 -8.238239 -7.308814 -22.112319 2.028302 -4.283434 -62.093423 -4.098478 25.042133 5.048197 -9.516717 12.945614 -9.717722 -6.667878 11.067886 23.311012 3.930310 -1.266202 54.587962 7.649491 18.537374 -1.274666 5.675055 6.138515 7.322869 1.342836 4.270745 
